<?xml version="1.0" standalone="no"?>
<!DOCTYPE svg PUBLIC "-//W3C//DTD SVG 20010904//EN"
 "http://www.w3.org/TR/2001/REC-SVG-20010904/DTD/svg10.dtd">
<svg version="1.0" xmlns="http://www.w3.org/2000/svg"
 width="700.000000pt" height="700.000000pt" viewBox="0 0 700.000000 700.000000"
 preserveAspectRatio="xMidYMid meet">
<metadata>
Created by potrace 1.14, written by Peter Selinger 2001-2017
</metadata>
<g transform="translate(0.000000,700.000000) scale(0.100000,-0.100000)"
fill="#000000" stroke="none">
<path d="M3347 6971 c-31 -10 -70 -27 -85 -37 -72 -46 -2406 -1911 -2427
-1938 -58 -76 -55 -7 -55 -1385 0 -1401 -2 -1341 65 -1478 24 -48 51 -85 83
-112 102 -88 2357 -1853 2386 -1868 17 -9 39 -26 49 -40 27 -34 90 -63 137
-63 47 0 110 29 137 63 10 14 34 32 53 42 19 10 62 39 95 65 33 26 535 420
1115 875 580 456 1085 851 1122 878 80 59 131 130 167 236 l26 76 3 1311 2
1311 -32 64 -33 63 -1175 914 c-646 503 -1202 933 -1235 956 -87 62 -135 78
-245 82 -74 3 -108 0 -153 -15z m408 -1673 c91 -18 214 -85 281 -152 172 -173
172 -398 0 -570 -110 -110 -258 -166 -441 -166 -173 0 -313 52 -428 160 -242
226 -151 569 185 700 124 48 259 58 403 28z m2058 -1522 c18 -7 47 -29 66 -47
170 -168 51 -571 -203 -690 -59 -28 -75 -31 -136 -27 -87 5 -139 38 -184 118
-30 53 -31 60 -30 165 0 128 18 187 91 297 54 82 108 131 188 169 68 33 153
39 208 15z m-4258 -320 c134 -66 249 -219 291 -386 23 -91 16 -229 -15 -290
-45 -87 -103 -133 -189 -149 -103 -20 -219 26 -322 128 -171 169 -233 428
-145 600 71 141 217 178 380 97z m3661 -655 c55 -25 111 -94 131 -160 21 -74
13 -223 -17 -310 -28 -79 -108 -200 -163 -245 -137 -112 -272 -122 -367 -27
-136 136 -104 431 67 621 110 122 244 169 349 121z m-2576 -801 c85 -43 184
-143 231 -235 60 -115 74 -168 74 -280 0 -94 -2 -105 -33 -168 -54 -108 -129
-152 -251 -145 -96 5 -168 43 -261 137 -226 229 -242 593 -30 704 50 26 62 28
130 25 60 -4 88 -12 140 -38z m1887 -231 c46 -17 102 -79 124 -139 16 -41 21
-77 21 -140 -1 -247 -174 -483 -372 -507 -65 -8 -145 30 -184 86 -104 149 -59
421 97 588 98 104 219 148 314 112z"/>
</g>
</svg>
